<svg xmlns="http://www.w3.org/2000/svg" xmlns:xlink="http://www.w3.org/1999/xlink" viewBox="0 0 1132 804" xmlns:ev="http://www.w3.org/2001/xml-events" height="804" width="1132"><style type="text/css"><![CDATA[
.st1 {fill:#303030;font-family:Arial;font-size:10pt}
]]></style><defs><linearGradient id="lg1" x1="0%" y2="100%" y1="0%" x2="0%"><stop stop-color="#fbfbfb" offset="0"/><stop stop-color="#efefef" offset="1"/></linearGradient></defs><g id="page1" transform="translate(5,5)"><rect fill="#ffffff" height="794" stroke="#808080" y="0" x="0" width="1123"/><g id="shape1" transform="translate(274,340)"><text class="st1"><tspan y="74.5" x="261">x</tspan></text></g><g id="shape2" transform="translate(250,222)"><path d="M2,2L612,2L612,286L2,286L2,2z" fill="#000000" fill-opacity="0.08"/><path d="M0,0L610,0L610,284L0,284L0,0z" fill="url(#lg1)" stroke="#6d6d6d"/><text class="st1"><tspan y="145.5" x="247">Произвести товара</tspan></text></g><g id="shape3" transform="translate(118,80.3)"><path d="M0,0L198,0L198,137.6" fill="none" stroke="#6d6d6d"/><path d="M198,142L201,136.8C200.1,137.3,199.1,137.6,198,137.6C196.9,137.6,195.9,137.3,195,136.8L198,142" fill="#6d6d6d" stroke-width="1" stroke="#6d6d6d" stroke-linecap="round"/><rect fill="#ffffff" height="15" y="-7.5" x="85" width="173.7"/><text class="st1"><tspan y="3.5" x="84.9">План производства изделий</tspan></text></g><g id="shape4" transform="translate(458,165)"><path d="M0,0L0,51.6" fill="none" stroke="#6d6d6d"/><path d="M0,56L3,50.8C2.1,51.3,1.1,51.6,0,51.6C-1.1,51.6,-2.1,51.3,-3,50.8L0,56" fill="#6d6d6d" stroke-width="1" stroke="#6d6d6d" stroke-linecap="round"/><rect fill="#ffffff" height="15" y="28" x="-73.5" width="150.2"/><text class="st1"><tspan y="39" x="-73.6">Методология испытания</tspan></text></g><g id="shape5" transform="translate(817,109)"><path d="M0,0L-210,0L-210,108.6" fill="none" stroke="#6d6d6d"/><path d="M-210,113L-207,107.8C-207.9,108.3,-208.9,108.6,-210,108.6C-211.1,108.6,-212.1,108.3,-213,107.8L-210,113" fill="#6d6d6d" stroke-width="1" stroke="#6d6d6d" stroke-linecap="round"/><rect fill="#ffffff" height="15" y="-7.5" x="-98" width="159.4"/><text class="st1"><tspan y="3.5" x="-98.1">Поставка комплектующих</tspan></text></g><g id="shape6" transform="translate(166,193)"><path d="M0,0L72.7,115.3" fill="none" stroke="#6d6d6d"/><path d="M75,119L74.8,113C74.3,113.9,73.6,114.7,72.7,115.3C71.7,115.9,70.7,116.2,69.7,116.2L75,119" fill="#6d6d6d" stroke-width="1" stroke="#6d6d6d" stroke-linecap="round"/><rect fill="#ffffff" height="15" y="52" x="-12" width="101.2"/><text class="st1"><tspan y="63" x="-12.1">Заказ от дилера</tspan></text></g><g id="shape7" transform="translate(170,501)"><path d="M0,0L0,-137L75.6,-137" fill="none" stroke="#6d6d6d"/><path d="M80,-137L74.8,-140C75.3,-139.1,75.6,-138.1,75.6,-137C75.6,-135.9,75.3,-134.9,74.8,-134L80,-137" fill="#6d6d6d" stroke-width="1" stroke="#6d6d6d" stroke-linecap="round"/><rect fill="#ffffff" height="15" y="-116" x="-49.3" width="100.2"/><text class="st1"><tspan y="-105" x="-49.4">Комплектующие</tspan></text></g><g id="shape8" transform="translate(860,364)"><path d="M0,0L165,0L165,9.6" fill="none" stroke="#6d6d6d"/><path d="M165,14L168,8.8C167.1,9.3,166.1,9.6,165,9.6C163.9,9.6,162.9,9.3,162,8.8L165,14" fill="#6d6d6d" stroke-width="1" stroke="#6d6d6d" stroke-linecap="round"/><rect fill="#ffffff" height="15" y="-7.5" x="39.5" width="102.2"/><text class="st1"><tspan y="3.5" x="39.4">Готовый продукт</tspan></text></g><g id="shape9" transform="translate(239,595)"><path d="M0,0L196,0L196,-80.6" fill="none" stroke="#6d6d6d"/><path d="M196,-85L193,-79.8C193.9,-80.3,194.9,-80.6,196,-80.6C197.1,-80.6,198.1,-80.3,199,-79.8L196,-85" fill="#6d6d6d" stroke-width="1" stroke="#6d6d6d" stroke-linecap="round"/><rect fill="#ffffff" height="15" y="-7.5" x="28.8" width="124.7"/><text class="st1"><tspan y="3.5" x="28.7">Конвейерная линия </tspan></text></g><g id="shape10" transform="translate(718,652)"><path d="M0,0L-163,0L-163,-141.6" fill="none" stroke="#6d6d6d"/><path d="M-163,-146L-166,-140.8C-165.1,-141.3,-164.1,-141.6,-163,-141.6C-161.9,-141.6,-160.9,-141.3,-160,-140.8L-163,-146" fill="#6d6d6d" stroke-width="1" stroke="#6d6d6d" stroke-linecap="round"/><rect fill="#ffffff" height="15" y="-7.5" x="-77.1" width="116.5"/><text class="st1"><tspan y="3.5" x="-77.2">Контроль качества</tspan></text></g></g></svg>