<svg xmlns="http://www.w3.org/2000/svg" xmlns:xlink="http://www.w3.org/1999/xlink" viewBox="0 0 1132 804" xmlns:ev="http://www.w3.org/2001/xml-events" height="804" width="1132"><style type="text/css"><![CDATA[
.st1 {fill:#303030;font-family:Arial;font-size:10pt}
]]></style><defs><linearGradient id="lg1" x1="0%" y2="100%" y1="0%" x2="0%"><stop stop-color="#fbfcfa" offset="0"/><stop stop-color="#eff3ea" offset="1"/></linearGradient><linearGradient id="lg2" x1="0%" y2="100%" y1="0%" x2="0%"><stop stop-color="#fbfbfb" offset="0"/><stop stop-color="#efefef" offset="1"/></linearGradient></defs><g id="page1" transform="translate(5,5)"><rect fill="#ffffff" height="794" stroke="#808080" y="0" x="0" width="1123"/><g id="shape1" transform="translate(162.26,155.85)"><path d="M2,2L208.7,2L208.7,106.1L2,106.1L2,2z" fill="#000000" fill-opacity="0.08"/><path d="M0,0L206.7,0L206.7,104.1L0,104.1L0,0z" fill="url(#lg1)" stroke="#71893f"/><text class="st1"><tspan y="48.1" x="20.4">Создать производственный </tspan><tspan y="63.1" x="89.4">план</tspan></text></g><g id="shape2" transform="translate(444.5,307)"><path d="M2,2L257,2L257,144L2,144L2,2z" fill="#000000" fill-opacity="0.08"/><path d="M0,0L255,0L255,142L0,142L0,0z" fill="url(#lg2)" stroke="#6d6d6d"/><text class="st1"><tspan y="74.5" x="77">Создать продукт</tspan></text></g><g id="shape3" transform="translate(775,534)"><path d="M2,2L158,2L158,101L2,101L2,2z" fill="#000000" fill-opacity="0.08"/><path d="M0,0L156,0L156,99L0,99L0,0z" fill="url(#lg2)" stroke="#6d6d6d"/><text class="st1"><tspan y="53" x="17">Проверить качество</tspan></text></g><g id="shape4" transform="translate(435,109)"><path d="M0,0L-169.7,0L-169.7,42.5" fill="none" stroke="#6d6d6d"/><path d="M-169.7,46.9L-166.7,41.7C-167.6,42.2,-168.6,42.5,-169.7,42.5C-170.8,42.5,-171.9,42.2,-172.7,41.7L-169.7,46.9" fill="#6d6d6d" stroke-width="1" stroke="#6d6d6d" stroke-linecap="round"/><rect fill="#ffffff" height="15" y="-7.5" x="-132.2" width="192.1"/><text class="st1"><tspan y="3.5" x="-132.3">План поставки комплектующих</tspan></text></g><g id="shape5" transform="translate(80,217)"><path d="M0,0L0,-9.1L77.9,-9.1" fill="none" stroke="#6d6d6d"/><path d="M82.3,-9.1L77.1,-12.1C77.6,-11.2,77.9,-10.2,77.9,-9.1C77.9,-8,77.6,-7,77.1,-6.1L82.3,-9.1" fill="#6d6d6d" stroke-width="1" stroke="#6d6d6d" stroke-linecap="round"/><rect fill="#ffffff" height="15" y="-16.6" x="-6" width="34.7"/><text class="st1"><tspan y="-5.6" x="-6.1">Заказ</tspan></text></g><g id="shape6" transform="translate(369.26,207.93)"><path d="M0,0L126,0L126,85.7" fill="none" stroke="#6d6d6d"/><path d="M126,90.1L129,84.9C128.1,85.4,127.1,85.7,126,85.7C124.9,85.7,123.9,85.4,123,84.9L126,90.1" fill="#6d6d6d" stroke-width="1" stroke="#6d6d6d" stroke-linecap="round"/><rect fill="#ffffff" height="15" y="-7.5" x="34" width="151.3"/><text class="st1"><tspan y="3.5" x="33.9">Производственный план</tspan></text></g><g id="shape7" transform="translate(132,340)"><path d="M0,0L133.3,0L133.3,-75.8" fill="none" stroke="#6d6d6d"/><path d="M133.3,-80.1L130.3,-75C131.1,-75.5,132.2,-75.8,133.3,-75.8C134.4,-75.8,135.4,-75.5,136.3,-75L133.3,-80.1" fill="#6d6d6d" stroke-width="1" stroke="#6d6d6d" stroke-linecap="round"/><rect fill="#ffffff" height="15" y="-7.5" x="-43.6" width="129.8"/><text class="st1"><tspan y="3.5" x="-43.7">Отдел планирования</tspan></text></g><g id="shape8" transform="translate(213,586)"><path d="M0,0L0,-208L227.1,-208" fill="none" stroke="#6d6d6d"/><path d="M231.5,-208L226.3,-211C226.8,-210.1,227.1,-209.1,227.1,-208C227.1,-206.9,226.8,-205.9,226.3,-205L231.5,-208" fill="#6d6d6d" stroke-width="1" stroke="#6d6d6d" stroke-linecap="round"/><rect fill="#ffffff" height="15" y="-27.5" x="-49.3" width="100.2"/><text class="st1"><tspan y="-16.5" x="-49.4">Комплектующие</tspan></text></g><g id="shape9" transform="translate(572.5,553)"><path d="M0,0L0,-99.6" fill="none" stroke="#6d6d6d"/><path d="M0,-104L-3,-98.8C-2.1,-99.3,-1.1,-99.6,0,-99.6C1.1,-99.6,2.1,-99.3,3,-98.8L0,-104" fill="#6d6d6d" stroke-width="1" stroke="#6d6d6d" stroke-linecap="round"/><rect fill="#ffffff" height="15" y="-67" x="-25.1" width="51.1"/><text class="st1"><tspan y="-56" x="-25.2">Конвеер</tspan></text></g><g id="shape10" transform="translate(699.5,378)"><path d="M0,0L43.5,0L43.5,206L71.1,206" fill="none" stroke="#6d6d6d"/><path d="M75.5,206L70.3,203C70.8,203.9,71.1,204.9,71.1,206C71.1,207.1,70.8,208.1,70.3,209L75.5,206" fill="#6d6d6d" stroke-width="1" stroke="#6d6d6d" stroke-linecap="round"/><rect fill="#ffffff" height="15" y="89.8" x="-28.9" width="148.2"/><text class="st1"><tspan y="100.8" x="-29">Собранный автомобиль</tspan></text></g><g id="shape11" transform="translate(860,383)"><path d="M0,0L-7,0L-7,146.6" fill="none" stroke="#6d6d6d"/><path d="M-7,151L-4,145.8C-4.9,146.3,-5.9,146.6,-7,146.6C-8.1,146.6,-9.1,146.3,-10,145.8L-7,151" fill="#6d6d6d" stroke-width="1" stroke="#6d6d6d" stroke-linecap="round"/><rect fill="#ffffff" height="15" y="123.5" x="-118.1" width="226.9"/><text class="st1"><tspan y="134.5" x="-118.2">Методология проведения испытаний</tspan></text></g><g id="shape12" transform="translate(853,713)"><path d="M0,0L0,-75.6" fill="none" stroke="#6d6d6d"/><path d="M0,-80L-3,-74.8C-2.1,-75.3,-1.1,-75.6,0,-75.6C1.1,-75.6,2.1,-75.3,3,-74.8L0,-80" fill="#6d6d6d" stroke-width="1" stroke="#6d6d6d" stroke-linecap="round"/><rect fill="#ffffff" height="15" y="-47.5" x="-80.9" width="165.6"/><text class="st1"><tspan y="-36.5" x="-81">Отдел контроля качеством</tspan></text></g><g id="shape13" transform="translate(581,213)"><path d="M0,0L-8.5,0L-8.5,89.6" fill="none" stroke="#6d6d6d"/><path d="M-8.5,94L-5.5,88.8C-6.4,89.3,-7.4,89.6,-8.5,89.6C-9.6,89.6,-10.6,89.3,-11.5,88.8L-8.5,94" fill="#6d6d6d" stroke-width="1" stroke="#6d6d6d" stroke-linecap="round"/><rect fill="#ffffff" height="15" y="4" x="-93.5" width="173.7"/><text class="st1"><tspan y="15" x="-93.6">План производства изделий</tspan></text></g><g id="shape14" transform="translate(931,584)"><path d="M0,0L123,0L123,30.6" fill="none" stroke="#6d6d6d"/><path d="M123,35L126,29.8C125.1,30.3,124.1,30.6,123,30.6C121.9,30.6,120.9,30.3,120,29.8L123,35" fill="#6d6d6d" stroke-width="1" stroke="#6d6d6d" stroke-linecap="round"/><rect fill="#ffffff" height="15" y="-7.5" x="29" width="102.2"/><text class="st1"><tspan y="3.5" x="28.9">Готовый продукт</tspan></text></g><g id="shape15" transform="translate(803.5,108)"><path d="M2,2L257,2L257,144L2,144L2,2z" fill="#000000" fill-opacity="0.08"/><path d="M0,0L255,0L255,142L0,142L0,0z" fill="url(#lg2)" stroke="#6d6d6d"/><text class="st1"><tspan y="74.5" x="22">Учесть дефекты. Выявить причину</tspan></text></g><g id="shape16" transform="translate(853,534)"><path d="M0,0L0,-14L49.6,-14" fill="none" stroke="#6d6d6d"/><path d="M54,-14L48.8,-17C49.3,-16.1,49.6,-15.1,49.6,-14C49.6,-12.9,49.3,-11.9,48.8,-11L54,-14" fill="#6d6d6d" stroke-width="1" stroke="#6d6d6d" stroke-linecap="round"/></g><g id="shape17" transform="translate(940,557)"><path d="M0,0L85,0L85,-287.6" fill="none" stroke="#6d6d6d"/><path d="M85,-292L82,-286.8C82.9,-287.3,83.9,-287.6,85,-287.6C86.1,-287.6,87.1,-287.3,88,-286.8L85,-292" fill="#6d6d6d" stroke-width="1" stroke="#6d6d6d" stroke-linecap="round"/><rect fill="#ffffff" height="15" y="-279.5" x="71.3" width="27.6"/><text class="st1"><tspan y="-268.5" x="71.2">брак</tspan></text></g><g id="shape18" transform="translate(794,227)"><path d="M0,0L-157,69.2" fill="none" stroke="#6d6d6d"/><path d="M-161,71L-155,71.6C-155.9,71,-156.5,70.2,-157,69.2C-157.4,68.2,-157.6,67.2,-157.5,66.2L-161,71" fill="#6d6d6d" stroke-width="1" stroke="#6d6d6d" stroke-linecap="round"/></g><g id="shape19" transform="translate(784,118)"><path d="M0,0L-467.6,23.8" fill="none" stroke="#6d6d6d"/><path d="M-472,24L-466.7,26.7C-467.2,25.9,-467.6,24.9,-467.6,23.8C-467.7,22.7,-467.4,21.6,-467,20.7L-472,24" fill="#6d6d6d" stroke-width="1" stroke="#6d6d6d" stroke-linecap="round"/></g></g></svg>