<svg xmlns="http://www.w3.org/2000/svg" xmlns:xlink="http://www.w3.org/1999/xlink" viewBox="0 0 1597 1133" xmlns:ev="http://www.w3.org/2001/xml-events" height="1133" width="1597"><style type="text/css"><![CDATA[
.st1 {fill:#303030;font-family:Arial;font-size:10pt}
]]></style><defs><linearGradient id="lg1" x1="194" y2="382" y1="-194" gradientUnits="userSpaceOnUse" x2="770"><stop stop-color="#f6f6f6" offset="0"/><stop stop-color="#ffffff" offset="1"/></linearGradient></defs><g id="page1" transform="translate(5,5)"><rect fill="#ffffff" height="1123" stroke="#808080" y="0" x="0" width="1587"/><g transform="translate(311.7,211.26)"><g><path d="M0,0L964,0L964,188L0,188L0,0z" fill="none" id="shape1" stroke-width="0.25" stroke="#404040"/><path d="M0,0L964,0L964,188L0,188L0,0z" fill="url(#lg1)" id="shape2" stroke-width="0.25" stroke="#404040"/><g id="shape3" transform="matrix(0,-1,1,0,-0,188)"><path d="M0,0L188,0L188,56.7L0,56.7L0,0z" fill="#ffffff" stroke="#404040"/><text class="st1"><tspan y="31.8" x="50">Планирование</tspan></text></g></g><g transform="translate(0,188)"><path d="M0,0L964,0L964,188L0,188L0,0z" fill="none" id="shape4" stroke-width="0.25" stroke="#404040"/><path d="M0,0L964,0L964,188L0,188L0,0z" fill="url(#lg1)" id="shape5" stroke-width="0.25" stroke="#404040"/><g id="shape6" transform="matrix(0,-1,1,0,-0,188)"><path d="M0,0L188,0L188,56.7L0,56.7L0,0z" fill="#ffffff" stroke="#404040"/><text class="st1"><tspan y="31.8" x="52">Производство</tspan></text></g></g><g transform="translate(0,376)"><path d="M0,0L964,0L964,188L0,188L0,0z" fill="none" id="shape7" stroke-width="0.25" stroke="#404040"/><path d="M0,0L964,0L964,188L0,188L0,0z" fill="url(#lg1)" id="shape8" stroke-width="0.25" stroke="#404040"/><g id="shape9" transform="matrix(0,-1,1,0,-0,188)"><path d="M0,0L188,0L188,56.7L0,56.7L0,0z" fill="#ffffff" stroke="#404040"/><text class="st1"><tspan y="31.8" x="72">Ремонт</tspan></text></g></g><g transform="translate(0,564)"><path d="M0,0L964,0L964,188L0,188L0,0z" fill="none" id="shape10" stroke-width="0.25" stroke="#404040"/><path d="M0,0L964,0L964,188L0,188L0,0z" fill="url(#lg1)" id="shape11" stroke-width="0.25" stroke="#404040"/><g id="shape12" transform="matrix(0,-1,1,0,-0,188)"><path d="M0,0L188,0L188,56.7L0,56.7L0,0z" fill="#ffffff" stroke="#404040"/><text class="st1"><tspan y="31.8" x="61">Испытания</tspan></text></g></g></g><g transform="translate(523.7,269.26)"><path d="M38,19C38,29.5,29.5,38,19,38C8.5,38,0,29.5,0,19C0,8.5,8.5,0,19,0C29.5,0,38,8.5,38,19z" fill="#ffffff" id="shape13" stroke="#868686"/><text class="st1"><tspan y="53.5" x="2">Заказ</tspan></text></g><g transform="translate(722.96,248.26)"><g><path d="M110,80C115.5,80,120,75.5,120,70L120,10C120,4.5,115.5,0,110,0L10,0C4.5,0,0,4.5,0,10L0,70C0,75.5,4.5,80,10,80L110,80z" fill="#ffffff" id="shape14" stroke="#404040"/></g><g transform="translate(5,3)"/><g transform="translate(62,63)"/><text class="st1"><tspan y="36" x="5">Разработка плана </tspan><tspan y="51" x="19">производства</tspan></text></g><g transform="translate(1024.7,248.26)"><g><path d="M110,80C115.5,80,120,75.5,120,70L120,10C120,4.5,115.5,0,110,0L10,0C4.5,0,0,4.5,0,10L0,70C0,75.5,4.5,80,10,80L110,80z" fill="#ffffff" id="shape15" stroke="#404040"/></g><g transform="translate(5,3)"/><g transform="translate(62,63)"/><text class="st1"><tspan y="43.5" x="10">Передача плана</tspan></text></g><g transform="translate(441.7,442.26)"><g><path d="M110,80C115.5,80,120,75.5,120,70L120,10C120,4.5,115.5,0,110,0L10,0C4.5,0,0,4.5,0,10L0,70C0,75.5,4.5,80,10,80L110,80z" fill="#ffffff" id="shape16" stroke="#404040"/></g><g transform="translate(5,3)"/><g transform="translate(62,63)"/><text class="st1"><tspan y="36" x="42">Старт </tspan><tspan y="51" x="19">производства</tspan></text></g><g transform="translate(646.7,418.26)"><g><path d="M110,80C115.5,80,120,75.5,120,70L120,10C120,4.5,115.5,0,110,0L10,0C4.5,0,0,4.5,0,10L0,70C0,75.5,4.5,80,10,80L110,80z" fill="#ffffff" id="shape17" stroke="#404040"/></g><g transform="translate(5,3)"/><g transform="translate(62,63)"/><text class="st1"><tspan y="43.5" x="16">Сборка кузова</tspan></text></g><g transform="translate(868.7,418.26)"><g><path d="M110,80C115.5,80,120,75.5,120,70L120,10C120,4.5,115.5,0,110,0L10,0C4.5,0,0,4.5,0,10L0,70C0,75.5,4.5,80,10,80L110,80z" fill="#ffffff" id="shape18" stroke="#404040"/></g><g transform="translate(5,3)"/><g transform="translate(62,63)"/><text class="st1"><tspan y="43.5" x="32">Покраска</tspan></text></g><g transform="translate(1078.7,418.26)"><g><path d="M110,80C115.5,80,120,75.5,120,70L120,10C120,4.5,115.5,0,110,0L10,0C4.5,0,0,4.5,0,10L0,70C0,75.5,4.5,80,10,80L110,80z" fill="#ffffff" id="shape19" stroke="#404040"/></g><g transform="translate(5,3)"/><g transform="translate(62,63)"/><text class="st1"><tspan y="43.5" x="15">Полная сборка</tspan></text></g><g transform="translate(515,657.26)"><g><path d="M110,80C115.5,80,120,75.5,120,70L120,10C120,4.5,115.5,0,110,0L10,0C4.5,0,0,4.5,0,10L0,70C0,75.5,4.5,80,10,80L110,80z" fill="#ffffff" id="shape20" stroke="#404040"/></g><g transform="translate(5,3)"/><g transform="translate(62,63)"/><text class="st1"><tspan y="43.5" x="38">Ремонт</tspan></text></g><g transform="translate(701.7,657.26)"><g><path d="M110,80C115.5,80,120,75.5,120,70L120,10C120,4.5,115.5,0,110,0L10,0C4.5,0,0,4.5,0,10L0,70C0,75.5,4.5,80,10,80L110,80z" fill="#ffffff" id="shape21" stroke="#404040"/></g><g transform="translate(5,3)"/><g transform="translate(62,63)"/><text class="st1"><tspan y="36" x="30">Возврат в </tspan><tspan y="51" x="19">производство</tspan></text></g><g transform="translate(441.7,822.26)"><g><path d="M110,80C115.5,80,120,75.5,120,70L120,10C120,4.5,115.5,0,110,0L10,0C4.5,0,0,4.5,0,10L0,70C0,75.5,4.5,80,10,80L110,80z" fill="#ffffff" id="shape22" stroke="#404040"/></g><g transform="translate(5,3)"/><g transform="translate(62,63)"/><text class="st1"><tspan y="43.5" x="8">Старт испытаний</tspan></text></g><g transform="translate(701.7,822.26)"><g><path d="M110,80C115.5,80,120,75.5,120,70L120,10C120,4.5,115.5,0,110,0L10,0C4.5,0,0,4.5,0,10L0,70C0,75.5,4.5,80,10,80L110,80z" fill="#ffffff" id="shape23" stroke="#404040"/></g><g transform="translate(5,3)"/><g transform="translate(62,63)"/><text class="st1"><tspan y="36" x="23">Проведение </tspan><tspan y="51" x="28">испытаний</tspan></text></g><g transform="translate(961.7,832.26)"><path d="M0,30L30,0L60,30L30,60L0,30z" fill="#ffffff" id="shape24" stroke="#860607"/></g><g transform="translate(1194.7,843.26)"><path d="M38,19C38,29.5,29.5,38,19,38C8.5,38,0,29.5,0,19C0,8.5,8.5,0,19,0C29.5,0,38,8.5,38,19z" fill="#000000" id="shape25" stroke="#000000"/><path d="M32.7,16.3C32.7,25.4,25.4,32.7,16.3,32.7C7.3,32.7,-0,25.4,-0,16.3C-0,7.3,7.3,-0,16.3,-0C25.4,-0,32.7,7.3,32.7,16.3z" fill="#ffffff" id="shape26" stroke="#866310" transform="translate(2.66,2.66)"/><text class="st1"><tspan y="53.5" x="-27.6">Машина готова</tspan></text></g><g transform="translate(910.7,159.26)"><g id="shape27"><path d="M0,7.8L0,48.2C0,52.5,17.5,56,39,56C60.5,56,78,52.5,78,48.2L78,7.8C78,3.5,60.5,-0,39,-0C17.5,-0,0,3.5,0,7.8z" fill="#ffffff"/><path d="M0,7.8L0,48.2C0,52.5,17.5,56,39,56C60.5,56,78,52.5,78,48.2L78,7.8C78,3.5,60.5,-0,39,-0C17.5,-0,0,3.5,0,7.8zM0,7.8C0,12.1,17.5,15.6,39,15.6C60.5,15.6,78,12.1,78,7.8M0,11.7C0,16,17.5,19.5,39,19.5C60.5,19.5,78,16,78,11.7M0,15.6C0,19.9,17.5,23.4,39,23.4C60.5,23.4,78,19.9,78,15.6" fill="none" stroke="#005a7d"/></g><path d="M0,7.8C0,12.1,17.5,15.6,39,15.6C60.5,15.6,78,12.1,78,7.8M0,11.7C0,16,17.5,19.5,39,19.5C60.5,19.5,78,16,78,11.7M0,15.6C0,19.9,17.5,23.4,39,23.4C60.5,23.4,78,19.9,78,15.6" fill="none" id="shape28" stroke="#ffffff"/><text class="st1"><tspan y="71.5" x="-5.2">План поставок</tspan></text></g><g transform="translate(601.7,159.26)"><g id="shape29"><path d="M0,7.8L0,48.2C0,52.5,17.5,56,39,56C60.5,56,78,52.5,78,48.2L78,7.8C78,3.5,60.5,-0,39,-0C17.5,-0,0,3.5,0,7.8z" fill="#ffffff"/><path d="M0,7.8L0,48.2C0,52.5,17.5,56,39,56C60.5,56,78,52.5,78,48.2L78,7.8C78,3.5,60.5,-0,39,-0C17.5,-0,0,3.5,0,7.8zM0,7.8C0,12.1,17.5,15.6,39,15.6C60.5,15.6,78,12.1,78,7.8M0,11.7C0,16,17.5,19.5,39,19.5C60.5,19.5,78,16,78,11.7M0,15.6C0,19.9,17.5,23.4,39,23.4C60.5,23.4,78,19.9,78,15.6" fill="none" stroke="#005a7d"/></g><path d="M0,7.8C0,12.1,17.5,15.6,39,15.6C60.5,15.6,78,12.1,78,7.8M0,11.7C0,16,17.5,19.5,39,19.5C60.5,19.5,78,16,78,11.7M0,15.6C0,19.9,17.5,23.4,39,23.4C60.5,23.4,78,19.9,78,15.6" fill="none" id="shape30" stroke="#ffffff"/><text class="st1"><tspan y="71.5" x="-20">Состояни конвеера</tspan></text></g><path d="M0,0L161.3,0" fill="none" id="shape31" stroke="#000000" transform="translate(561.7,288.26)"/><path d="M0,0L181.7,0" fill="none" id="shape32" stroke="#000000" transform="translate(842.96,288.26)"/><path d="M0,0L0,28L112.3,28L112.3,33" fill="none" id="shape33" stroke="#000000" transform="translate(640.7,215.26)"/><path d="M0,0L0,28L-136.7,28L-136.7,33" fill="none" id="shape34" stroke="#000000" transform="translate(949.7,215.26)"/><path d="M0,0L53,0L53,-24L85,-24" fill="none" id="shape35" stroke="#000000" transform="translate(561.7,482.26)"/><path d="M0,0L102,0" fill="none" id="shape36" stroke="#000000" transform="translate(766.7,458.26)"/><path d="M0,0L90,0" fill="none" id="shape37" stroke="#000000" transform="translate(988.7,458.26)"/><path d="M0,0L20.3,25.7" fill="none" id="shape38" stroke="#000000" transform="translate(766.7,498.26)"/><path d="M0,0L0,6L-126,6L-126,14" fill="none" id="shape39" stroke="#000000" transform="translate(928.7,498.26)"/><path d="M0,0L0,64L-246,64" fill="none" id="shape40" stroke="#000000" transform="translate(1078.7,478.26)"/><g id="shape41" transform="translate(802.7,572.26)"><path d="M0,0L0,53L-227.7,53L-227.7,85" fill="none" stroke="#000000"/><rect fill="#ffffff" height="15" y="57.5" x="-286" width="118.6"/><text class="st1"><tspan y="68.5" x="-286.1">Обнаружен дефект</tspan></text></g><path d="M0,0L66.7,0" fill="none" id="shape42" stroke="#000000" transform="translate(635,697.26)"/><path d="M0,0L140,0" fill="none" id="shape43" stroke="#000000" transform="translate(561.7,862.26)"/><path d="M0,0L140,0" fill="none" id="shape44" stroke="#000000" transform="translate(821.7,862.26)"/><g id="shape45" transform="translate(1021.7,862.26)"><path d="M0,0L173,0" fill="none" stroke="#000000"/><rect fill="#ffffff" height="15" y="-7.5" x="22.9" width="132.9"/><text class="st1"><tspan y="3.5" x="22.8">Испытания пройдены</tspan></text></g><g id="shape46" transform="translate(991.7,832.26)"><path d="M0,0L0,-63L-416.7,-63L-416.7,-95" fill="none" stroke="#000000"/><rect fill="#ffffff" height="15" y="-27.5" x="-22.7" width="46"/><text class="st1"><tspan y="-16.5" x="-22.9">Дефект</tspan></text></g><path d="M0,0L0,58L-583,58L-583,114" fill="none" id="shape47" stroke="#000000" transform="translate(1084.7,328.26)"/><g transform="translate(772.7,512.26)"><path d="M0,30L30,0L60,30L30,60L0,30z" fill="#ffffff" id="shape48" stroke="#860607"/></g><g id="shape49" transform="translate(772.7,542.26)"><path d="M0,0C-75.3,0,-150.5,0,-206.9,35C-263.4,70,-301,140,-301,280" fill="none" stroke="#000000"/><rect fill="#ffffff" height="15" y="27.5" x="-258.8" width="86.9"/><text class="st1"><tspan y="38.5" x="-259">Все в порядке</tspan></text></g><g transform="translate(783.7,657.26)"><path d="M38,19C38,29.5,29.5,38,19,38C8.5,38,0,29.5,0,19C0,8.5,8.5,0,19,0C29.5,0,38,8.5,38,19z" fill="#ffffff" id="shape50" stroke="#868686"/><g transform="translate(7.6,11.4)"><path d="M0,15.2L22.8,15.2L22.8,0L0,0L0,15.2z" fill="#ffffff" id="shape51" stroke="#000000"/><path d="M0,0L11.4,6.1L22.8,0" fill="none" id="shape52" stroke="#000000"/></g><path stroke-dasharray="6,4" d="M38,19C38,29.5,29.5,38,19,38C8.5,38,0,29.5,0,19C0,8.5,8.5,0,19,0C29.5,0,38,8.5,38,19z" fill="none" id="shape53" stroke="#000000"/></g><g transform="translate(441.7,442.26)"><path d="M38,19C38,29.5,29.5,38,19,38C8.5,38,0,29.5,0,19C0,8.5,8.5,0,19,0C29.5,0,38,8.5,38,19z" fill="#000000" id="shape54" stroke="#000000"/><path d="M32.7,16.3C32.7,25.4,25.4,32.7,16.3,32.7C7.3,32.7,-0,25.4,-0,16.3C-0,7.3,7.3,-0,16.3,-0C25.4,-0,32.7,7.3,32.7,16.3z" fill="#ffffff" id="shape55" stroke="#866310" transform="translate(2.66,2.66)"/><g transform="translate(7.6,11.5)"><path d="M0,15.2L22.8,15.2L22.8,0L0,0L0,15.2z" fill="#000000" id="shape56" stroke="#000000"/><path d="M0,0L11.4,6.1L22.8,0" fill="none" id="shape57" stroke="#ffffff"/></g></g></g></svg>